<?xml version="1.0" encoding="UTF-8" standalone="no"?>
<svg
   width="10.999992pt"
   height="10.999999pt"
   viewBox="0 0 10.999993 10.999999"
   version="1.1"
   id="svg2903"
   sodipodi:docname="streams_quickstart.pdf"
   xmlns:inkscape="http://www.inkscape.org/namespaces/inkscape"
   xmlns:sodipodi="http://sodipodi.sourceforge.net/DTD/sodipodi-0.dtd"
   xmlns="http://www.w3.org/2000/svg"
   xmlns:svg="http://www.w3.org/2000/svg">
  <sodipodi:namedview
     id="namedview2903"
     pagecolor="#ffffff"
     bordercolor="#000000"
     borderopacity="0.25"
     inkscape:showpageshadow="2"
     inkscape:pageopacity="0.0"
     inkscape:pagecheckerboard="0"
     inkscape:deskcolor="#d1d1d1"
     inkscape:document-units="pt">
    <inkscape:page
       x="0"
       y="0"
       width="10.999993"
       height="10.999999"
       id="page2"
       margin="0"
       bleed="0" />
  </sodipodi:namedview>
  <defs
     id="defs169" />
  <path
     fill-rule="nonzero"
     fill="#4f4c4c"
     fill-opacity="1"
     d="m 11.000032,5.5000012 c 0,3.035156 -2.4609403,5.4999998 -5.5000003,5.4999998 -3.03907,0 -5.499999987919,-2.4648438 -5.499999987919,-5.4999998 C 3.1712081e-5,2.4609382 2.4609617,1.1781916e-6 5.5000317,1.1781916e-6 8.5390917,1.1781916e-6 11.000032,2.4609382 11.000032,5.5000012"
     id="path170" />
  <path
     fill="none"
     stroke-width="0.78"
     stroke-linecap="round"
     stroke-linejoin="miter"
     stroke="#ffffff"
     stroke-opacity="1"
     stroke-miterlimit="10"
     d="m 2.7070592,5.847657 c 0,0 0.2382815,-2.5039058 0.8749995,-2.5039058 0.636719,0 0.039063,4.566406 0.792969,4.566406 0.757813,0 0.359375,-3.375 0.992188,-3.375 0.636718,0 0.398437,2.027344 0.835937,2.027344 0.4375,0 0.554688,-1.351563 0.992188,-1.351563 0.4375,0 0.519531,1.03125 0.792968,1.03125 0.277344,0 0.835938,-0.675781 0.835938,-0.675781"
     id="path171" />
</svg>
