<?xml version="1.0" encoding="UTF-8" standalone="no"?>
<svg
   width="232.9424pt"
   height="314.28125pt"
   viewBox="0 0 232.9424 314.28125"
   version="1.1"
   id="svg260"
   xmlns:xlink="http://www.w3.org/1999/xlink"
   xmlns="http://www.w3.org/2000/svg"
   xmlns:svg="http://www.w3.org/2000/svg">
  <defs
     id="defs9">
    <g
       id="g6">
      <g
         id="glyph-0-0">
        <path
           d="M 2.96875,0 V -6.40625 H 2.328125 L 1.125,-5.375 v 0.734375 L 2.328125,-5.6875 V 0 Z m 0,0"
           id="path1" />
      </g>
      <g
         id="glyph-0-1">
        <path
           d="M 4.15625,0 V -0.578125 H 1.390625 l 2.25,-2.859375 c 0.34375,-0.453125 0.515625,-0.78125 0.515625,-1.296875 0,-1.046875 -0.71875,-1.734375 -1.765625,-1.734375 -1.078125,0 -1.765625,0.734375 -1.765625,1.75 h 0.640625 c 0,-0.828125 0.53125,-1.171875 1.125,-1.171875 0.703125,0 1.109375,0.46875 1.109375,1.15625 0,0.34375 -0.109375,0.625 -0.359375,0.953125 l -2.53125,3.203125 V 0 Z m 0,0"
           id="path2" />
      </g>
      <g
         id="glyph-0-2">
        <path
           d="m 4.34375,-1.015625 v -0.59375 H 3.5625 v -1.8125 H 2.921875 v 1.8125 h -1.875 l 2.3125,-4.796875 h -0.6875 l -2.3125,4.796875 v 0.59375 h 2.5625 V 0 H 3.5625 v -1.015625 z m 0,0"
           id="path3" />
      </g>
      <g
         id="glyph-0-3">
        <path
           d="m 4.15625,-2.109375 c 0,-0.609375 -0.0625,-1.25 -0.53125,-1.71875 C 3.375,-4.09375 3,-4.234375 2.515625,-4.234375 c -0.5,0 -0.890625,0.15625 -1.140625,0.4375 v -2.03125 H 4.015625 V -6.40625 H 0.78125 v 3.359375 H 1.375 c 0.125,-0.375 0.5,-0.625 1.0625,-0.625 0.921875,0 1.078125,0.78125 1.078125,1.5625 0,0.453125 -0.03125,0.96875 -0.359375,1.296875 -0.1875,0.1875 -0.46875,0.296875 -0.796875,0.296875 -0.671875,0 -1,-0.359375 -1.078125,-1 H 0.625 c 0.046875,0.46875 0.171875,0.828125 0.453125,1.125 0.28125,0.28125 0.734375,0.453125 1.28125,0.453125 0.578125,0 0.984375,-0.171875 1.28125,-0.46875 0.46875,-0.46875 0.515625,-1.0625 0.515625,-1.703125 z m 0,0"
           id="path4" />
      </g>
      <g
         id="glyph-0-4">
        <path
           d="m 4.140625,-1.84375 c 0,-1.046875 -0.671875,-1.8125 -1.671875,-1.8125 -0.25,0 -0.46875,0.03125 -0.671875,0.125 l 1.4375,-2.875 H 2.5625 L 0.984375,-3.234375 C 0.71875,-2.6875 0.578125,-2.25 0.578125,-1.796875 c 0,1.109375 0.703125,1.84375 1.78125,1.84375 1.09375,0 1.78125,-0.796875 1.78125,-1.890625 z m -0.65625,0.03125 c 0,0.78125 -0.4375,1.296875 -1.125,1.296875 -0.6875,0 -1.125,-0.515625 -1.125,-1.296875 0,-0.796875 0.4375,-1.296875 1.125,-1.296875 0.734375,0 1.125,0.578125 1.125,1.296875 z m 0,0"
           id="path5" />
      </g>
      <g
         id="glyph-0-5">
        <path
           d="m 4.140625,-1.75 c 0,-0.796875 -0.328125,-1.3125 -0.984375,-1.5625 0.578125,-0.265625 0.859375,-0.75 0.859375,-1.421875 0,-1.046875 -0.71875,-1.734375 -1.75,-1.734375 -0.984375,0 -1.734375,0.609375 -1.8125,1.640625 h 0.65625 c 0.0625,-0.65625 0.46875,-1.0625 1.15625,-1.0625 0.609375,0 1.109375,0.40625 1.109375,1.171875 C 3.375,-4 3.015625,-3.5625 2.234375,-3.5625 H 2.09375 V -3 h 0.140625 c 0.875,0 1.25,0.46875 1.25,1.25 0,0.78125 -0.53125,1.234375 -1.21875,1.234375 -0.625,0 -1.1875,-0.3125 -1.234375,-1.109375 H 0.375 c 0.0625,1.15625 0.875,1.6875 1.890625,1.6875 1.03125,0 1.875,-0.625 1.875,-1.8125 z m 0,0"
           id="path6" />
      </g>
    </g>
  </defs>
  <path
     fill-rule="nonzero"
     fill="#deddda"
     fill-opacity="1"
     stroke-width="1"
     stroke-linecap="butt"
     stroke-linejoin="miter"
     stroke="#bebebb"
     stroke-opacity="1"
     stroke-miterlimit="4"
     d="M 0.44629948,187.50391 45.348643,98.605473 66.024424,142.53516 82.204112,121.34766 h 57.417968 l 36.89062,45.48437 55.75391,20.67188"
     id="path134" />
  <path
     fill-rule="nonzero"
     fill="#02a9a3"
     fill-opacity="1"
     d="m 22.79005,4.4520513e-6 c -3.132813,0 -5.675782,2.5351570479487 -5.675782,5.6640630479487 0,3.128906 2.542969,5.6640625 5.675782,5.6640625 3.121093,0 5.664062,-2.5351565 5.664062,-5.6640625 0,-3.128906 -2.542969,-5.6640630479487 -5.664062,-5.6640630479487 M 20.840831,8.2890675 l -0.683594,-0.683594 4.574219,-4.566406 0.679687,0.679687 z m 0,0"
     id="path135" />
  <path
     fill-rule="nonzero"
     fill="#02a9a3"
     fill-opacity="1"
     d="m 55.692393,4.4520513e-6 c -3.132812,0 -5.671875,2.5351570479487 -5.671875,5.6640630479487 0,3.128906 2.539063,5.6640625 5.671875,5.6640625 3.124999,0 5.664059,-2.5351565 5.664059,-5.6640625 0,-3.128906 -2.53906,-5.6640630479487 -5.664059,-5.6640630479487 M 53.743174,8.2890675 53.063487,7.6054735 57.6338,3.0390675 l 0.679692,0.679687 z m 0,0"
     id="path136" />
  <path
     fill-rule="nonzero"
     fill="#02a9a3"
     fill-opacity="1"
     d="m 73.981452,4.4520513e-6 c -3.13281,0 -5.67187,2.5351570479487 -5.67187,5.6640630479487 0,3.128906 2.53906,5.6640625 5.67187,5.6640625 3.125,0 5.66407,-2.5351565 5.66407,-5.6640625 0,-3.128906 -2.53907,-5.6640630479487 -5.66407,-5.6640630479487 M 72.032242,8.2890675 l -0.67969,-0.683594 4.57031,-4.566406 0.67969,0.679687 z m 0,0"
     id="path137" />
  <path
     fill-rule="nonzero"
     fill="#02a9a3"
     fill-opacity="1"
     d="m 204.35645,4.4520513e-6 c -3.1289,0 -5.67187,2.5351570479487 -5.67187,5.6640630479487 0,3.128906 2.54297,5.6640625 5.67187,5.6640625 3.125,0 5.66407,-2.5351565 5.66407,-5.6640625 0,-3.128906 -2.53907,-5.6640630479487 -5.66407,-5.6640630479487 M 202.40723,8.2890675 l -0.67968,-0.683594 4.57031,-4.566406 0.68359,0.679687 z m 0,0"
     id="path138" />
  <path
     fill-rule="nonzero"
     fill="#02a9a3"
     fill-opacity="1"
     d="m 157.8877,4.4520513e-6 c -3.1289,0 -5.67187,2.5351570479487 -5.67187,5.6640630479487 0,3.128906 2.54297,5.6640625 5.67187,5.6640625 3.125,0 5.66407,-2.5351565 5.66407,-5.6640625 0,-3.128906 -2.53907,-5.6640630479487 -5.66407,-5.6640630479487 M 155.93848,8.2890675 l -0.67968,-0.683594 4.57031,-4.566406 0.68359,0.679687 z m 0,0"
     id="path139" />
  <path
     fill-rule="nonzero"
     fill="#db2a7a"
     fill-opacity="1"
     d="m 110.8252,4.4520513e-6 c -3.1289,0 -5.66797,2.5351570479487 -5.66797,5.6718760479487 0,3.128906 2.53907,5.6679675 5.66797,5.6679675 3.13282,0 5.66797,-2.5390615 5.66797,-5.6679675 0,-3.136719 -2.53515,-5.6718760479487 -5.66797,-5.6718760479487 M 114.28614,6.1523485 h -6.46484 v -0.96875 h 6.46484 z m 0,0"
     id="path140" />
  <path
     fill="none"
     stroke-width="1"
     stroke-linecap="butt"
     stroke-linejoin="miter"
     stroke="#90908f"
     stroke-opacity="1"
     stroke-miterlimit="4"
     d="m 60.356456,151.16016 v 30.25"
     id="path141" />
  <path
     fill-rule="nonzero"
     fill="#90908f"
     fill-opacity="1"
     d="m 60.356452,145.69922 -2.550778,7.01172 h 5.105468 z m 0,0"
     id="path142" />
  <path
     fill-rule="nonzero"
     fill="#90908f"
     fill-opacity="1"
     d="m 60.356452,186.8711 2.55469,-7.01172 h -5.105468 z m 0,0"
     id="path143" />
  <path
     fill="none"
     stroke-width="1"
     stroke-linecap="butt"
     stroke-linejoin="miter"
     stroke="#90908f"
     stroke-opacity="1"
     stroke-miterlimit="4"
     d="m 173.68458,175.25781 v 7.25391"
     id="path144" />
  <path
     fill-rule="nonzero"
     fill="#90908f"
     fill-opacity="1"
     d="m 173.68458,169.79297 -2.55078,7.01172 h 5.10547 z m 0,0"
     id="path145" />
  <path
     fill-rule="nonzero"
     fill="#90908f"
     fill-opacity="1"
     d="m 173.68458,187.97266 2.55469,-7.01172 h -5.10547 z m 0,0"
     id="path146" />
  <path
     fill="none"
     stroke-width="1"
     stroke-linecap="butt"
     stroke-linejoin="miter"
     stroke="#90908f"
     stroke-opacity="1"
     stroke-miterlimit="4"
     d="m 110.82521,129.33594 v 52.07422"
     id="path147" />
  <path
     fill-rule="nonzero"
     fill="#90908f"
     fill-opacity="1"
     d="m 110.8252,123.8711 -2.55078,7.01171 h 5.10156 z m 0,0"
     id="path148" />
  <path
     fill-rule="nonzero"
     fill="#90908f"
     fill-opacity="1"
     d="m 110.8252,186.8711 2.55078,-7.01172 h -5.10156 z m 0,0"
     id="path149" />
  <path
     fill="none"
     stroke-width="1"
     stroke-linecap="butt"
     stroke-linejoin="miter"
     stroke="#90908f"
     stroke-opacity="1"
     stroke-miterlimit="4"
     d="M 0.50098698,194.6211 H 45.067393"
     id="path150" />
  <path
     fill="none"
     stroke-width="1"
     stroke-linecap="butt"
     stroke-linejoin="miter"
     stroke="#90908f"
     stroke-opacity="1"
     stroke-miterlimit="4"
     d="m 0.50098698,192.3711 v 4.5"
     id="path151" />
  <path
     fill="none"
     stroke-width="1"
     stroke-linecap="butt"
     stroke-linejoin="miter"
     stroke="#90908f"
     stroke-opacity="1"
     stroke-miterlimit="4"
     d="m 45.067393,192.3711 v 4.5"
     id="path152" />
  <path
     fill="none"
     stroke-width="1"
     stroke-linecap="butt"
     stroke-linejoin="miter"
     stroke="#02a9a3"
     stroke-opacity="1"
     stroke-miterlimit="4"
     d="M 1.5244244,16.082036 H 44.043956"
     id="path153" />
  <path
     fill="none"
     stroke-width="1"
     stroke-linecap="butt"
     stroke-linejoin="miter"
     stroke="#90908e"
     stroke-opacity="1"
     stroke-miterlimit="4"
     d="M 66.305675,194.6211 H 81.645518"
     id="path154" />
  <path
     fill="none"
     stroke-width="1"
     stroke-linecap="butt"
     stroke-linejoin="miter"
     stroke="#90908e"
     stroke-opacity="1"
     stroke-miterlimit="4"
     d="m 66.305675,192.3711 v 4.5"
     id="path155" />
  <path
     fill="none"
     stroke-width="1"
     stroke-linecap="butt"
     stroke-linejoin="miter"
     stroke="#90908e"
     stroke-opacity="1"
     stroke-miterlimit="4"
     d="m 81.645518,192.3711 v 4.5"
     id="path156" />
  <path
     fill="none"
     stroke-width="1"
     stroke-linecap="butt"
     stroke-linejoin="miter"
     stroke="#02a8a2"
     stroke-opacity="1"
     stroke-miterlimit="4"
     d="M 66.891612,16.082036 H 81.063487"
     id="path157" />
  <path
     fill="none"
     stroke-width="1"
     stroke-linecap="butt"
     stroke-linejoin="miter"
     stroke="#90908e"
     stroke-opacity="1"
     stroke-miterlimit="4"
     d="m 140.00489,194.6211 h 35.75782"
     id="path158" />
  <path
     fill="none"
     stroke-width="1"
     stroke-linecap="butt"
     stroke-linejoin="miter"
     stroke="#90908e"
     stroke-opacity="1"
     stroke-miterlimit="4"
     d="m 140.00489,192.3711 v 4.5"
     id="path159" />
  <path
     fill="none"
     stroke-width="1"
     stroke-linecap="butt"
     stroke-linejoin="miter"
     stroke="#90908e"
     stroke-opacity="1"
     stroke-miterlimit="4"
     d="m 175.76271,192.3711 v 4.5"
     id="path160" />
  <path
     fill="none"
     stroke-width="1"
     stroke-linecap="butt"
     stroke-linejoin="miter"
     stroke="#02a8a2"
     stroke-opacity="1"
     stroke-miterlimit="4"
     d="m 140.87599,16.082036 h 34.01562"
     id="path161" />
  <path
     fill="none"
     stroke-width="1"
     stroke-linecap="butt"
     stroke-linejoin="miter"
     stroke="#90908e"
     stroke-opacity="1"
     stroke-miterlimit="4"
     d="M 46.067393,203.17188 H 65.309581"
     id="path162" />
  <path
     fill="none"
     stroke-width="1"
     stroke-linecap="butt"
     stroke-linejoin="miter"
     stroke="#90908e"
     stroke-opacity="1"
     stroke-miterlimit="4"
     d="m 46.067393,200.92188 v 4.5"
     id="path163" />
  <path
     fill="none"
     stroke-width="1"
     stroke-linecap="butt"
     stroke-linejoin="miter"
     stroke="#90908e"
     stroke-opacity="1"
     stroke-miterlimit="4"
     d="m 65.305675,200.92188 v 4.5"
     id="path164" />
  <path
     fill="none"
     stroke-width="1"
     stroke-linecap="butt"
     stroke-linejoin="miter"
     stroke="#02a8a2"
     stroke-opacity="1"
     stroke-miterlimit="4"
     d="m 45.766612,16.082036 h 19.84375"
     id="path165" />
  <path
     fill="none"
     stroke-width="1"
     stroke-linecap="butt"
     stroke-linejoin="miter"
     stroke="#90908e"
     stroke-opacity="1"
     stroke-miterlimit="4"
     d="M 82.645518,203.17188 H 139.00489"
     id="path166" />
  <path
     fill="none"
     stroke-width="1"
     stroke-linecap="butt"
     stroke-linejoin="miter"
     stroke="#90908e"
     stroke-opacity="1"
     stroke-miterlimit="4"
     d="m 82.645518,200.92188 v 4.5"
     id="path167" />
  <path
     fill="none"
     stroke-width="1"
     stroke-linecap="butt"
     stroke-linejoin="miter"
     stroke="#90908e"
     stroke-opacity="1"
     stroke-miterlimit="4"
     d="m 139.00489,200.92188 v 4.5"
     id="path168" />
  <path
     fill="none"
     stroke-width="1"
     stroke-linecap="butt"
     stroke-linejoin="miter"
     stroke="#db2a7a"
     stroke-opacity="1"
     stroke-miterlimit="4"
     d="m 82.47755,16.082036 h 56.69531"
     id="path169" />
  <path
     fill="none"
     stroke-width="1"
     stroke-linecap="butt"
     stroke-linejoin="miter"
     stroke="#90908e"
     stroke-opacity="1"
     stroke-miterlimit="4"
     d="m 176.76271,203.17188 h 55.17968"
     id="path170" />
  <path
     fill="none"
     stroke-width="1"
     stroke-linecap="butt"
     stroke-linejoin="miter"
     stroke="#90908e"
     stroke-opacity="1"
     stroke-miterlimit="4"
     d="m 176.76271,200.92188 v 4.5"
     id="path171" />
  <path
     fill="none"
     stroke-width="1"
     stroke-linecap="butt"
     stroke-linejoin="miter"
     stroke="#90908e"
     stroke-opacity="1"
     stroke-miterlimit="4"
     d="m 231.94239,200.92188 v 4.5"
     id="path172" />
  <path
     fill="none"
     stroke-width="1"
     stroke-linecap="butt"
     stroke-linejoin="miter"
     stroke="#02a8a2"
     stroke-opacity="1"
     stroke-miterlimit="4"
     d="m 176.26271,16.082036 h 56.17968"
     id="path173" />
  <g
     fill="#181716"
     fill-opacity="1"
     id="g173"
     transform="translate(-42.014638,-46.851558)">
    <use
       xlink:href="#glyph-0-0"
       x="62.225498"
       y="285.62979"
       id="use173" />
  </g>
  <g
     fill="#181716"
     fill-opacity="1"
     id="g174"
     transform="translate(-42.014638,-46.851558)">
    <use
       xlink:href="#glyph-0-0"
       x="59.9035"
       y="116.0428"
       id="use174" />
  </g>
  <g
     fill="#181716"
     fill-opacity="1"
     id="g175"
     transform="translate(-42.014638,-46.851558)">
    <use
       xlink:href="#glyph-0-1"
       x="95.129501"
       y="285.62979"
       id="use175" />
  </g>
  <g
     fill="#181716"
     fill-opacity="1"
     id="g176"
     transform="translate(-42.014638,-46.851558)">
    <use
       xlink:href="#glyph-0-2"
       x="150.48849"
       y="285.62979"
       id="use176" />
  </g>
  <g
     fill="#181716"
     fill-opacity="1"
     id="g177"
     transform="translate(-42.014638,-46.851558)">
    <use
       xlink:href="#glyph-0-3"
       x="197.0995"
       y="285.62979"
       id="use177" />
  </g>
  <g
     fill="#181716"
     fill-opacity="1"
     id="g178"
     transform="translate(-42.014638,-46.851558)">
    <use
       xlink:href="#glyph-0-2"
       x="150.48849"
       y="154.41879"
       id="use178" />
  </g>
  <g
     fill="#181716"
     fill-opacity="1"
     id="g179"
     transform="translate(-42.014638,-46.851558)">
    <use
       xlink:href="#glyph-0-1"
       x="95.3545"
       y="116.0428"
       id="use179" />
  </g>
  <g
     fill="#181716"
     fill-opacity="1"
     id="g180"
     transform="translate(-42.014638,-46.851558)">
    <use
       xlink:href="#glyph-0-3"
       x="197.5495"
       y="116.0428"
       id="use180" />
  </g>
  <g
     fill="#181716"
     fill-opacity="1"
     id="g181"
     transform="translate(-42.014638,-46.851558)">
    <use
       xlink:href="#glyph-0-4"
       x="243.7915"
       y="285.62979"
       id="use181" />
  </g>
  <g
     fill="#181716"
     fill-opacity="1"
     id="g182"
     transform="translate(-42.014638,-46.851558)">
    <use
       xlink:href="#glyph-0-4"
       x="243.7915"
       y="116.0428"
       id="use182" />
  </g>
  <g
     fill="#181716"
     fill-opacity="1"
     id="g183"
     transform="translate(-42.014638,-46.851558)">
    <use
       xlink:href="#glyph-0-5"
       x="113.6425"
       y="285.62979"
       id="use183" />
  </g>
  <g
     fill="#181716"
     fill-opacity="1"
     id="g184"
     transform="translate(-42.014638,-46.851558)">
    <use
       xlink:href="#glyph-0-5"
       x="113.6425"
       y="116.0428"
       id="use184" />
  </g>
  <path
     fill="none"
     stroke-width="1"
     stroke-linecap="round"
     stroke-linejoin="round"
     stroke="#a7a7a5"
     stroke-opacity="1"
     stroke-dasharray="0, 1.991"
     stroke-miterlimit="4"
     d="M 44.067393,98.773442 C 39.965831,102.52735 28.161143,114.53906 17.540049,137.00391"
     id="path184" />
  <path
     fill="none"
     stroke-width="1"
     stroke-linecap="round"
     stroke-linejoin="round"
     stroke="#a7a7a5"
     stroke-opacity="1"
     stroke-dasharray="0, 1.964"
     stroke-miterlimit="4"
     d="M 16.293956,139.6875 C 5.3212999,163.71875 1.0830179,182.625 0.18848698,187.00781"
     id="path185" />
  <path
     fill="none"
     stroke-width="1"
     stroke-linecap="round"
     stroke-linejoin="round"
     stroke="#a7a7a5"
     stroke-opacity="1"
     stroke-miterlimit="4"
     d="m 45.567393,97.464849 v 0 M 17.114268,137.90625 v 0 M 9.8697839e-4,187.97266 v 0"
     id="path186" />
  <path
     fill="none"
     stroke-width="1"
     stroke-linecap="round"
     stroke-linejoin="round"
     stroke="#a7a7a5"
     stroke-opacity="1"
     stroke-dasharray="0, 2.026"
     stroke-miterlimit="4"
     d="M 45.340831,99.476567 C 44.598643,105.1211 41.649424,122.16797 31.254893,144.78125"
     id="path187" />
  <path
     fill="none"
     stroke-width="1"
     stroke-linecap="round"
     stroke-linejoin="round"
     stroke="#a7a7a5"
     stroke-opacity="1"
     stroke-dasharray="0, 2.027"
     stroke-miterlimit="4"
     d="M 29.958018,147.53125 C 18.524425,171.21875 4.2353619,184.35938 0.77833098,187.32422"
     id="path188" />
  <path
     fill="none"
     stroke-width="1"
     stroke-linecap="round"
     stroke-linejoin="round"
     stroke="#a7a7a5"
     stroke-opacity="1"
     stroke-miterlimit="4"
     d="m 45.567393,97.464849 v 0 M 30.829112,145.69922 v 0 M 9.8697839e-4,187.97266 v 0"
     id="path189" />
  <path
     fill="none"
     stroke-width="1"
     stroke-linecap="round"
     stroke-linejoin="round"
     stroke="#a7a7a5"
     stroke-opacity="1"
     stroke-dasharray="0, 1.927"
     stroke-miterlimit="4"
     d="m 80.340831,121.91406 c -2.023438,0.88672 -5.40625,2.76954 -8.347656,6.3711"
     id="path190" />
  <path
     fill="none"
     stroke-width="1"
     stroke-linecap="round"
     stroke-linejoin="round"
     stroke="#a7a7a5"
     stroke-opacity="1"
     stroke-dasharray="0, 2.13"
     stroke-miterlimit="4"
     d="m 70.1963,130.80469 c -2.707032,4.32812 -3.820313,8.86719 -4.210938,10.86328"
     id="path191" />
  <path
     fill="none"
     stroke-width="1"
     stroke-linecap="round"
     stroke-linejoin="round"
     stroke="#a7a7a5"
     stroke-opacity="1"
     stroke-miterlimit="4"
     d="m 82.145518,121.25 v 0 m -10.746093,7.79688 v 0 m -5.59375,13.67187 v 0"
     id="path192" />
  <path
     fill="none"
     stroke-width="1"
     stroke-linecap="round"
     stroke-linejoin="round"
     stroke="#a7a7a5"
     stroke-opacity="1"
     stroke-dasharray="0, 1.998"
     stroke-miterlimit="4"
     d="m 81.829112,123.22266 c -0.476563,2.26953 -1.621094,6.17969 -4.285156,10.04297"
     id="path193" />
  <path
     fill="none"
     stroke-width="1"
     stroke-linecap="round"
     stroke-linejoin="round"
     stroke="#a7a7a5"
     stroke-opacity="1"
     stroke-dasharray="0, 2.039"
     stroke-miterlimit="4"
     d="m 75.672862,135.65625 c -3.339844,3.76563 -7.191406,5.84375 -8.929688,6.65625"
     id="path194" />
  <path
     fill="none"
     stroke-width="1"
     stroke-linecap="round"
     stroke-linejoin="round"
     stroke="#a7a7a5"
     stroke-opacity="1"
     stroke-miterlimit="4"
     d="m 82.145518,121.25 v 0 m -5.183593,12.82813 v 0 m -11.15625,8.64062 v 0"
     id="path195" />
  <path
     fill="none"
     stroke-width="0.9"
     stroke-linecap="butt"
     stroke-linejoin="miter"
     stroke="#606263"
     stroke-opacity="1"
     stroke-miterlimit="4"
     d="M 45.567393,186.42188 V 84.070322"
     id="path196" />
  <path
     fill="none"
     stroke-width="0.9"
     stroke-linecap="butt"
     stroke-linejoin="miter"
     stroke="#606263"
     stroke-opacity="1"
     stroke-miterlimit="4"
     d="M 65.805675,186.42188 V 84.070322"
     id="path197" />
  <path
     fill="none"
     stroke-width="0.9"
     stroke-linecap="butt"
     stroke-linejoin="miter"
     stroke="#606263"
     stroke-opacity="1"
     stroke-miterlimit="4"
     d="M 82.145518,186.42188 V 84.070322"
     id="path198" />
  <path
     fill="none"
     stroke-width="0.9"
     stroke-linecap="butt"
     stroke-linejoin="miter"
     stroke="#606263"
     stroke-opacity="1"
     stroke-miterlimit="4"
     d="M 139.50489,186.42188 V 84.070322"
     id="path199" />
  <path
     fill="none"
     stroke-width="0.9"
     stroke-linecap="butt"
     stroke-linejoin="miter"
     stroke="#606263"
     stroke-opacity="1"
     stroke-miterlimit="4"
     d="M 176.26271,186.42188 V 84.070322"
     id="path200" />
  <path
     fill="none"
     stroke-width="1"
     stroke-linecap="round"
     stroke-linejoin="round"
     stroke="#a7a7a5"
     stroke-opacity="1"
     stroke-dasharray="0, 1.96"
     stroke-miterlimit="4"
     d="m 178.66896,166.14844 c 4.35547,-0.20313 15.45703,-0.14844 27.91015,4.38672"
     id="path201" />
  <path
     fill="none"
     stroke-width="1"
     stroke-linecap="round"
     stroke-linejoin="round"
     stroke="#a7a7a5"
     stroke-opacity="1"
     stroke-dasharray="0, 2.036"
     stroke-miterlimit="4"
     d="m 209.38771,171.63281 c 12.65625,5.26954 20.21875,13.08985 22.39843,15.5625"
     id="path202" />
  <path
     fill="none"
     stroke-width="1"
     stroke-linecap="round"
     stroke-linejoin="round"
     stroke="#a7a7a5"
     stroke-opacity="1"
     stroke-miterlimit="4"
     d="m 176.71583,166.28516 v 0 m 30.78125,4.59375 v 0 m 24.94531,17.09375 v 0"
     id="path203" />
  <path
     fill="none"
     stroke-width="1"
     stroke-linecap="round"
     stroke-linejoin="round"
     stroke="#a7a7a5"
     stroke-opacity="1"
     stroke-dasharray="0, 1.962"
     stroke-miterlimit="4"
     d="m 177.92677,167.82813 c 2.61328,3.08593 9.53516,10.14062 21.57031,14.93359"
     id="path204" />
  <path
     fill="none"
     stroke-width="1"
     stroke-linecap="round"
     stroke-linejoin="round"
     stroke="#a7a7a5"
     stroke-opacity="1"
     stroke-dasharray="0, 2.039"
     stroke-miterlimit="4"
     d="m 202.32521,183.8125 c 13.24609,4.59375 25.55468,4.39844 29.09765,4.22266"
     id="path205" />
  <path
     fill="none"
     stroke-width="1"
     stroke-linecap="round"
     stroke-linejoin="round"
     stroke="#a7a7a5"
     stroke-opacity="1"
     stroke-miterlimit="4"
     d="m 176.71583,166.28516 v 0 m 23.69531,16.83203 v 0 m 32.03125,4.85547 v 0"
     id="path206" />
  <path
     fill-rule="nonzero"
     fill="#e1ddd7"
     fill-opacity="1"
     stroke-width="1"
     stroke-linecap="butt"
     stroke-linejoin="miter"
     stroke="#a7a7a5"
     stroke-opacity="1"
     stroke-miterlimit="4"
     d="m 21.090831,245.33203 c 0,0 -2,0 -2,2 v 64.44922 c 0,0 0,2 2,2 h 3.386718 c 0,0 2,0 2,-2 v -64.44922 c 0,0 0,-2 -2,-2 z m 0,0"
     id="path207" />
  <path
     fill-rule="nonzero"
     fill="#e1ddd7"
     fill-opacity="1"
     stroke-width="1"
     stroke-linecap="butt"
     stroke-linejoin="miter"
     stroke="#a7a7a5"
     stroke-opacity="1"
     stroke-miterlimit="4"
     d="m 53.770518,245.33203 c 0,0 -2,0 -2,2 v 64.44922 c 0,0 0,2 2,2 h 3.386719 c 0,0 2,0 2,-2 v -64.44922 c 0,0 0,-2 -2,-2 z m 0,0"
     id="path208" />
  <path
     fill-rule="nonzero"
     fill="#e1ddd7"
     fill-opacity="1"
     stroke-width="1"
     stroke-linecap="butt"
     stroke-linejoin="miter"
     stroke="#a7a7a5"
     stroke-opacity="1"
     stroke-miterlimit="4"
     d="m 72.282237,245.33203 c 0,0 -2,0 -2,2 v 64.44922 c 0,0 0,2 2,2 h 3.386719 c 0,0 2,0 2,-2 v -64.44922 c 0,0 0,-2 -2,-2 z m 0,0"
     id="path209" />
  <path
     fill-rule="nonzero"
     fill="#e1ddd7"
     fill-opacity="1"
     stroke-width="1"
     stroke-linecap="butt"
     stroke-linejoin="miter"
     stroke="#a7a7a5"
     stroke-opacity="1"
     stroke-miterlimit="4"
     d="m 109.1338,28.382817 c 0,0 -2,0 -2,2 v 64.449219 c 0,0 0,2 2,2 h 3.38281 c 0,0 2,0 2,-2 V 30.382817 c 0,0 0,-2 -2,-2 z m 0,0"
     id="path210" />
  <path
     fill-rule="nonzero"
     fill="#e1ddd7"
     fill-opacity="1"
     stroke-width="1"
     stroke-linecap="butt"
     stroke-linejoin="miter"
     stroke="#a7a7a5"
     stroke-opacity="1"
     stroke-miterlimit="4"
     d="m 156.19239,245.33203 c 0,0 -2,0 -2,2 v 64.44922 c 0,0 0,2 2,2 h 3.38672 c 0,0 2,0 2,-2 v -64.44922 c 0,0 0,-2 -2,-2 z m 0,0"
     id="path211" />
  <path
     fill-rule="nonzero"
     fill="#e1ddd7"
     fill-opacity="1"
     stroke-width="1"
     stroke-linecap="butt"
     stroke-linejoin="miter"
     stroke="#a7a7a5"
     stroke-opacity="1"
     stroke-miterlimit="4"
     d="m 202.66114,245.33203 c 0,0 -2,0 -2,2 v 64.44922 c 0,0 0,2 2,2 h 3.38672 c 0,0 2,0 2,-2 v -64.44922 c 0,0 0,-2 -2,-2 z m 0,0"
     id="path212" />
  <path
     fill-rule="nonzero"
     fill="#494a4b"
     fill-opacity="1"
     d="m 21.235362,273.33203 c 0,0 -1,0 -1,1 v 9.4961 c 0,0 0,1 1,1 h 3.101562 c 0,0 1,0 1,-1 v -9.4961 c 0,0 0,-1 -1,-1 z m 0,0"
     id="path213" />
  <path
     fill-rule="nonzero"
     fill="#35bbae"
     fill-opacity="1"
     d="m 20.731456,281.13281 h 4.105468 v -4.10546 h -4.105468 z m 0,0"
     id="path214" />
  <path
     fill-rule="nonzero"
     fill="#494a4b"
     fill-opacity="1"
     d="m 53.911143,287.33203 c 0,0 -1,0 -1,1 v 9.4961 c 0,0 0,1 1,1 h 3.101563 c 0,0 0.999996,0 0.999996,-1 v -9.4961 c 0,0 0,-1 -0.999996,-1 z m 0,0"
     id="path215" />
  <path
     fill-rule="nonzero"
     fill="#35bbae"
     fill-opacity="1"
     d="m 53.411143,295.13281 h 4.101563 v -4.10546 h -4.101563 z m 0,0"
     id="path216" />
  <path
     fill-rule="nonzero"
     fill="#494a4b"
     fill-opacity="1"
     d="m 72.426772,291.33203 c 0,0 -1,0 -1,1 v 9.4961 c 0,0 0,1 1,1 h 3.10156 c 0,0 1,0 1,-1 v -9.4961 c 0,0 0,-1 -1,-1 z m 0,0"
     id="path217" />
  <path
     fill-rule="nonzero"
     fill="#35bbae"
     fill-opacity="1"
     d="m 71.926772,299.13281 h 4.10156 v -4.10546 h -4.10156 z m 0,0"
     id="path218" />
  <path
     fill-rule="nonzero"
     fill="#494a4b"
     fill-opacity="1"
     d="m 109.27442,48.382817 c 0,0 -1,0 -1,1 v 9.496095 c 0,0 0,1 1,1 h 3.10156 c 0,0 1,0 1,-1 v -9.496095 c 0,0 0,-1 -1,-1 z m 0,0"
     id="path219" />
  <path
     fill-rule="nonzero"
     fill="#35bbae"
     fill-opacity="1"
     d="m 108.77442,56.179692 h 4.10156 V 52.07813 h -4.10156 z m 0,0"
     id="path220" />
  <path
     fill-rule="nonzero"
     fill="#494a4b"
     fill-opacity="1"
     d="m 156.33302,287.33203 c 0,0 -1,0 -1,1 v 9.4961 c 0,0 0,1 1,1 h 3.10156 c 0,0 1,0 1,-1 v -9.4961 c 0,0 0,-1 -1,-1 z m 0,0"
     id="path221" />
  <path
     fill-rule="nonzero"
     fill="#35bbae"
     fill-opacity="1"
     d="m 155.83302,295.13281 h 4.10156 v -4.10546 h -4.10156 z m 0,0"
     id="path222" />
  <path
     fill-rule="nonzero"
     fill="#494a4b"
     fill-opacity="1"
     d="m 202.80177,267.33203 c 0,0 -1,0 -1,1 v 9.4961 c 0,0 0,1 1,1 h 3.10156 c 0,0 1,0 1,-1 v -9.4961 c 0,0 0,-1 -1,-1 z m 0,0"
     id="path223" />
  <path
     fill-rule="nonzero"
     fill="#35bbae"
     fill-opacity="1"
     d="m 202.30177,275.13281 h 4.10156 v -4.10546 h -4.10156 z m 0,0"
     id="path224" />
  <path
     fill-rule="nonzero"
     fill="#313031"
     fill-opacity="1"
     d="m 20.235362,58.742192 c 4.261719,0 7.71875,-3.45703 7.71875,-7.71875 0,-4.265625 -3.457031,-7.722656 -7.71875,-7.722656 -4.265625,0 -7.722656,3.457031 -7.722656,7.722656 0,4.26172 3.457031,7.71875 7.722656,7.71875"
     id="path225" />
  <path
     fill="none"
     stroke-width="2"
     stroke-linecap="butt"
     stroke-linejoin="miter"
     stroke="#ffffff"
     stroke-opacity="1"
     stroke-miterlimit="4"
     d="m 20.235362,43.300786 v 5.738281"
     id="path226" />
  <path
     fill-rule="nonzero"
     fill="#313031"
     fill-opacity="1"
     d="m 55.688487,58.742192 c 4.265625,0 7.718755,-3.45703 7.718755,-7.71875 0,-4.265625 -3.45313,-7.722656 -7.718755,-7.722656 -4.265625,0 -7.71875,3.457031 -7.71875,7.722656 0,4.26172 3.453125,7.71875 7.71875,7.71875"
     id="path227" />
  <path
     fill="none"
     stroke-width="2"
     stroke-linecap="butt"
     stroke-linejoin="miter"
     stroke="#ffffff"
     stroke-opacity="1"
     stroke-miterlimit="4"
     d="m 55.688487,43.300786 v 5.738281"
     id="path228" />
  <path
     fill-rule="nonzero"
     fill="#313031"
     fill-opacity="1"
     d="m 73.977552,58.742192 c 4.26172,0 7.71875,-3.45703 7.71875,-7.71875 0,-4.265625 -3.45703,-7.722656 -7.71875,-7.722656 -4.26563,0 -7.72266,3.457031 -7.72266,7.722656 0,4.26172 3.45703,7.71875 7.72266,7.71875"
     id="path229" />
  <path
     fill="none"
     stroke-width="2"
     stroke-linecap="butt"
     stroke-linejoin="miter"
     stroke="#ffffff"
     stroke-opacity="1"
     stroke-miterlimit="4"
     d="m 73.97755,43.300786 v 5.738281"
     id="path230" />
  <path
     fill-rule="nonzero"
     fill="#313031"
     fill-opacity="1"
     d="m 108.18458,262.3086 c 4.00781,1.45703 8.4375,-0.60547 9.89453,-4.61329 1.46094,-4.00781 -0.60547,-8.4375 -4.61328,-9.89843 -4.00781,-1.45703 -8.4375,0.60937 -9.89453,4.61718 -1.46094,4.00391 0.60547,8.4375 4.61328,9.89454"
     id="path231" />
  <path
     fill="none"
     stroke-width="2"
     stroke-linecap="butt"
     stroke-linejoin="miter"
     stroke="#ffffff"
     stroke-opacity="1"
     stroke-miterlimit="4"
     d="m 113.46583,247.79688 -1.96094,5.39062"
     id="path232" />
  <path
     fill-rule="nonzero"
     fill="#313031"
     fill-opacity="1"
     d="m 165.43458,49.417973 c -0.88281,-4.171875 -4.98438,-6.835937 -9.15625,-5.949219 -4.17188,0.886719 -6.83203,4.988282 -5.94531,9.15625 0.88671,4.171878 4.98437,6.835938 9.15625,5.949218 4.17187,-0.88672 6.83203,-4.98828 5.94531,-9.156249"
     id="path233" />
  <path
     fill="none"
     stroke-width="2"
     stroke-linecap="butt"
     stroke-linejoin="miter"
     stroke="#ffffff"
     stroke-opacity="1"
     stroke-miterlimit="4"
     d="m 150.33302,52.628911 5.60937,-1.195313"
     id="path234" />
  <path
     fill-rule="nonzero"
     fill="#313031"
     fill-opacity="1"
     d="m 204.35255,58.742192 c 4.26562,0 7.71875,-3.45703 7.71875,-7.71875 0,-4.265625 -3.45313,-7.722656 -7.71875,-7.722656 -4.26172,0 -7.71875,3.457031 -7.71875,7.722656 0,4.26172 3.45703,7.71875 7.71875,7.71875"
     id="path235" />
  <path
     fill="none"
     stroke-width="2"
     stroke-linecap="butt"
     stroke-linejoin="miter"
     stroke="#ffffff"
     stroke-opacity="1"
     stroke-miterlimit="4"
     d="m 204.35255,43.300786 v 5.738281"
     id="path236" />
  <path
     fill="none"
     stroke-width="1"
     stroke-linecap="butt"
     stroke-linejoin="miter"
     stroke="#67ccbd"
     stroke-opacity="1"
     stroke-miterlimit="4"
     d="m 22.559581,228.76953 v -26.4375"
     id="path237" />
  <path
     fill-rule="nonzero"
     fill="#67ccbd"
     fill-opacity="1"
     d="m 22.559581,196.8711 -2.550781,7.01171 h 5.101562 z m 0,0"
     id="path238" />
  <path
     fill="none"
     stroke-width="1"
     stroke-linecap="butt"
     stroke-linejoin="miter"
     stroke="#67ccbd"
     stroke-opacity="1"
     stroke-miterlimit="4"
     d="M 55.254893,228.76953 V 213.23828"
     id="path239" />
  <path
     fill-rule="nonzero"
     fill="#67ccbd"
     fill-opacity="1"
     d="m 55.254893,207.77735 -2.554687,7.01171 h 5.105468 z m 0,0"
     id="path240" />
  <path
     fill="none"
     stroke-width="1"
     stroke-linecap="butt"
     stroke-linejoin="miter"
     stroke="#67ccbd"
     stroke-opacity="1"
     stroke-miterlimit="4"
     d="M 110.82521,228.76953 V 213.23828"
     id="path241" />
  <path
     fill-rule="nonzero"
     fill="#67ccbd"
     fill-opacity="1"
     d="m 110.8252,207.77735 -2.55078,7.01171 h 5.10156 z m 0,0"
     id="path242" />
  <path
     fill="none"
     stroke-width="1"
     stroke-linecap="butt"
     stroke-linejoin="miter"
     stroke="#67ccbd"
     stroke-opacity="1"
     stroke-miterlimit="4"
     d="m 74.067393,228.76953 v -26.4375"
     id="path243" />
  <path
     fill-rule="nonzero"
     fill="#67ccbd"
     fill-opacity="1"
     d="m 74.067392,196.8711 -2.55078,7.01171 h 5.10156 z m 0,0"
     id="path244" />
  <path
     fill="none"
     stroke-width="1"
     stroke-linecap="butt"
     stroke-linejoin="miter"
     stroke="#67ccbd"
     stroke-opacity="1"
     stroke-miterlimit="4"
     d="m 157.8838,228.76953 v -26.4375"
     id="path245" />
  <path
     fill-rule="nonzero"
     fill="#67ccbd"
     fill-opacity="1"
     d="m 157.8838,196.8711 -2.55078,7.01171 h 5.10546 z m 0,0"
     id="path246" />
  <path
     fill="none"
     stroke-width="1"
     stroke-linecap="butt"
     stroke-linejoin="miter"
     stroke="#67ccbd"
     stroke-opacity="1"
     stroke-miterlimit="4"
     d="M 204.35255,228.76953 V 213.23828"
     id="path247" />
  <path
     fill-rule="nonzero"
     fill="#67ccbd"
     fill-opacity="1"
     d="m 204.35255,207.77735 -2.55078,7.01171 h 5.10546 z m 0,0"
     id="path248" />
  <path
     fill="none"
     stroke-width="1"
     stroke-linecap="butt"
     stroke-linejoin="miter"
     stroke="#67ccbd"
     stroke-opacity="1"
     stroke-miterlimit="4"
     d="m 18.590831,73.699224 c 0,23.265624 -23.0898441,32.527336 -5.335938,50.277336"
     id="path249" />
  <path
     fill-rule="nonzero"
     fill="#67ccbd"
     fill-opacity="1"
     d="m 17.114268,127.83985 -3.152344,-6.76172 -3.609374,3.60937 z m 0,0"
     id="path250" />
  <path
     fill="none"
     stroke-width="1"
     stroke-linecap="butt"
     stroke-linejoin="miter"
     stroke="#67ccbd"
     stroke-opacity="1"
     stroke-miterlimit="4"
     d="m 55.254893,73.699224 c 0,27.781246 -12.367187,65.824216 0.527344,88.710936"
     id="path251" />
  <path
     fill-rule="nonzero"
     fill="#67ccbd"
     fill-opacity="1"
     d="m 58.461922,167.16797 -1.218748,-7.35937 -4.445312,2.5039 z m 0,0"
     id="path252" />
  <path
     fill="none"
     stroke-width="1"
     stroke-linecap="butt"
     stroke-linejoin="miter"
     stroke="#67ccbd"
     stroke-opacity="1"
     stroke-miterlimit="4"
     d="M 73.97755,73.699224 V 115.28906"
     id="path253" />
  <path
     fill-rule="nonzero"
     fill="#67ccbd"
     fill-opacity="1"
     d="m 73.977552,120.75 2.55078,-7.01172 h -5.10547 z m 0,0"
     id="path254" />
  <path
     fill="none"
     stroke-width="1"
     stroke-linecap="butt"
     stroke-linejoin="miter"
     stroke="#67ccbd"
     stroke-opacity="1"
     stroke-miterlimit="4"
     d="M 204.35255,73.699224 V 161.70703"
     id="path255" />
  <path
     fill-rule="nonzero"
     fill="#67ccbd"
     fill-opacity="1"
     d="m 204.35255,167.16797 2.55468,-7.01172 h -5.10546 z m 0,0"
     id="path256" />
  <path
     fill="none"
     stroke-width="1"
     stroke-linecap="butt"
     stroke-linejoin="miter"
     stroke="#67ccbd"
     stroke-opacity="1"
     stroke-miterlimit="4"
     d="m 157.8838,73.699224 c 0,32.031246 -14.78125,86.234376 6.84375,101.968746"
     id="path257" />
  <path
     fill-rule="nonzero"
     fill="#67ccbd"
     fill-opacity="1"
     d="m 169.14552,178.88281 -4.16797,-6.1875 -3.00391,4.125 z m 0,0"
     id="path258" />
  <path
     fill="none"
     stroke-width="1"
     stroke-linecap="butt"
     stroke-linejoin="miter"
     stroke="#67ccbd"
     stroke-opacity="1"
     stroke-miterlimit="4"
     d="m 110.82521,109.78125 c 0,10.96875 -29.074223,19.59766 -7.53125,41.14453"
     id="path259" />
  <path
     fill-rule="nonzero"
     fill="#67ccbd"
     fill-opacity="1"
     d="m 107.15723,154.78516 -3.15625,-6.76172 -3.60937,3.60937 z m 0,0"
     id="path260" />
</svg>
